<svg width="129" height="90" viewBox="0 0 129 90" fill="none" xmlns="http://www.w3.org/2000/svg">
<path d="M81.3512 63.4216L79.314 68.9647L78.3191 69.8175L76.424 70.007C76.0134 71.302 75.5239 72.3127 74.9553 73.0391C73.7867 74.3025 72.1917 75.3922 70.1703 76.3081C68.1805 77.1925 66.1591 77.6347 64.1061 77.6347C61.9899 77.6347 60.079 77.1293 58.3735 76.1186C56.6995 75.1079 55.6888 73.8603 55.3414 72.3758C55.6256 70.6703 56.5416 68.5225 58.0892 65.9326C59.6369 63.3111 61.295 61.2265 63.0638 59.6789L63.7744 63.7533C62.9216 64.385 62.0531 65.1272 61.1687 65.98C60.2843 66.8328 59.5895 67.5908 59.0841 68.2541C59.5895 68.9174 60.4265 69.4543 61.5951 69.8649C62.7637 70.2439 64.1692 70.4334 65.8116 70.4334C67.5172 70.4334 69.0648 70.2439 70.4545 69.8649C71.8758 69.4543 73.0761 68.9331 74.0552 68.3015C73.8657 66.4064 73.4393 64.0691 72.776 61.2897C72.1443 58.5103 71.4968 56.1572 70.8336 54.2306C71.5916 52.904 72.476 51.6248 73.4867 50.393C74.4974 49.1613 75.4449 48.1979 76.3293 47.5031C76.6451 48.419 76.9452 50.472 77.2294 53.662C77.5137 56.8205 77.6716 59.9316 77.7032 62.9953L81.0669 62.6162L81.3512 63.4216Z" fill="#007A3D"/>
<path d="M106.555 61.6371L104.517 67.1802L103.522 68.033C100.08 68.3804 97.7424 68.5541 96.5106 68.5541C94.7419 68.5541 93.2574 68.1751 92.0572 67.4171C89.4041 68.4594 86.5141 69.17 83.3873 69.549L82.5819 69.6438L83.0083 68.3172C81.7133 69.0437 80.1499 69.5175 78.318 69.7385L81.0658 62.5373C82.6766 62.3478 84.0506 61.9372 85.1876 61.3055L85.8983 59.0314L87.3669 59.1735L86.6563 62.3004L87.4617 62.2057L89.4515 61.9688C89.4831 60.6738 89.7516 59.3157 90.2569 57.8944C90.7623 56.4415 91.3782 55.2097 92.1046 54.199C92.989 52.9988 94.1102 52.067 95.4683 51.4038C96.8581 50.7089 98.2004 50.3615 99.4954 50.3615C100.917 50.3615 101.927 50.7879 102.527 51.6406C103.128 52.4934 103.428 53.741 103.428 55.3834C103.428 57.5627 102.733 59.5525 101.343 61.3529L102.717 61.2107L106.27 60.8317L106.555 61.6371ZM91.0149 61.1634C91.0149 61.3844 91.0939 61.574 91.2518 61.7319C93.368 61.416 95.1525 61.0528 96.6054 60.6422C98.0899 60.2316 99.1795 59.8368 99.8744 59.4578C100.601 59.0472 100.964 58.7156 100.964 58.4629C100.964 58.2418 100.759 58.0523 100.348 57.8944C99.9691 57.7364 99.369 57.6575 98.5478 57.6575C97.316 57.6575 96.1158 57.847 94.9472 58.226C93.7786 58.5734 92.831 59.0314 92.1046 59.5999C91.3782 60.1369 91.0149 60.658 91.0149 61.1634Z" fill="#007A3D"/>
<path d="M117.363 60.6264L115.325 66.1695L114.331 67.0223L109.119 67.5434L109.688 65.601C108.614 66.9907 106.545 67.8435 103.481 68.1593L106.229 60.9581C108.44 60.737 110.209 60.279 111.535 59.5841L112.578 56.1256L114.094 56.2678L113.241 60.2L117.078 59.821L117.363 60.6264ZM105.092 72.7549L113.667 70.4334L112.72 75.3132L104.287 77.1609L105.092 72.7549Z" fill="#007A3D"/>
<path d="M126.063 46.6819C126.915 46.6819 127.61 47.282 128.147 48.4822C128.716 49.6824 129 51.2142 129 53.0777C129 54.6254 128.684 56.4415 128.052 58.5261C127.452 60.579 126.742 62.1583 125.92 63.2637C125.289 64.0533 124.136 64.7798 122.462 65.4431C120.82 66.1063 118.719 66.5801 116.161 66.8644L114.313 67.0539L117.061 59.8526L119.998 59.5683C121.862 59.3473 123.615 59.0314 125.257 58.6208L125.068 57.01H122.699C121.499 57.01 120.535 56.8363 119.809 56.4889C119.082 56.1098 118.719 55.5887 118.719 54.9254C118.719 54.1674 119.177 53.1251 120.093 51.7986C121.009 50.472 122.051 49.2876 123.22 48.2453C124.389 47.203 125.336 46.6819 126.063 46.6819ZM124.973 43.6498C123.867 42.797 122.762 41.4388 121.657 39.5754L126.063 36.638L126.726 37.7277C127.61 39.1806 128.352 40.286 128.953 41.044L124.973 43.6498Z" fill="#007A3D"/>
<path d="M31.5898 54.1832L29.5526 59.7263L28.5577 60.579C26.1889 60.8001 23.2673 61.2107 19.793 61.8108C21.2143 61.9372 22.6356 62.1583 24.0569 62.4741C25.5098 62.7584 26.71 63.0584 27.6576 63.3743C27.1838 66.6591 26.6627 69.2016 26.0941 71.0019C25.5572 72.7707 24.8623 74.1446 24.0096 75.1237C22.5883 76.7661 20.5195 78.14 17.8032 79.2455C15.0869 80.3509 12.3075 80.9037 9.4649 80.9037C7.0329 80.9037 4.93253 80.2404 3.1638 78.9138C1.39507 77.5557 0.415947 75.6922 0.22644 73.3234C1.30031 70.3544 2.64265 67.6066 4.25346 65.0798C5.86427 62.5215 7.93306 60.0737 10.4598 57.7364L11.4547 62.1898C9.74916 63.5164 8.35945 64.7482 7.28557 65.8852C6.2117 67.0223 5.24837 68.2541 4.39559 69.5806C5.21679 70.844 6.25908 71.8073 7.52246 72.4706C8.81742 73.1023 10.444 73.4181 12.4023 73.4181C14.8658 73.4181 17.1557 73.0233 19.2719 72.2337C21.4196 71.4125 23.1726 70.3544 24.5307 69.0595C23.2357 68.6489 21.467 68.2699 19.2245 67.9224C16.982 67.575 15.008 67.3697 13.3024 67.3065C14.5974 63.0742 16.1292 59.521 17.898 56.6468C19.6035 55.8572 21.6249 55.1939 23.9622 54.657C26.2994 54.0884 28.7472 53.662 31.3056 53.3778L31.5898 54.1832ZM8.09098 85.594L16.6662 83.2725L15.7186 88.1523L7.28557 90L8.09098 85.594Z" fill="#007A3D"/>
<path d="M46.1367 43.7603L44.0995 49.3034L43.1046 50.1562L41.7307 50.2983L41.3043 50.3457C41.5885 50.7563 41.7307 51.1511 41.7307 51.5301C41.7307 52.7303 41.2885 54.0568 40.4041 55.5097C39.5513 56.9626 38.5564 58.1312 37.4194 59.0156C36.3455 59.3315 35.1927 59.5999 33.9609 59.821C32.7291 60.0421 30.9288 60.279 28.5599 60.5317L31.3078 53.3304L32.6817 53.1883H32.7765V53.0935C32.7765 52.6513 32.966 51.8775 33.345 50.7721C33.7556 49.635 34.2294 48.5296 34.7663 47.4557C35.3032 46.3502 35.7928 45.5922 36.235 45.1816C37.0562 44.2972 39.6619 43.6182 44.0521 43.1444L45.8525 42.9549L46.1367 43.7603Z" fill="#007A3D"/>
<path d="M63.4122 26.3257L61.375 31.8687L60.3801 32.7215C57.348 33.0374 54.379 33.448 51.4733 33.9533C52.9261 34.0797 54.3948 34.3008 55.8793 34.6166C57.3638 34.9009 58.564 35.2009 59.4799 35.5168C59.4799 37.0644 59.1641 38.9121 58.5324 41.0598C57.9323 43.2076 57.269 44.8026 56.5426 45.8449C55.4371 46.7608 53.7 47.6294 51.3311 48.4506C48.9939 49.2402 46.246 49.7929 43.0876 50.1088L45.8354 42.9075C48.1727 42.6864 50.0677 42.4338 51.5206 42.1495C53.0051 41.8337 54.458 41.4704 55.8793 41.0598C54.6159 40.6808 52.8946 40.3334 50.7152 40.0175C48.5675 39.7017 46.704 39.5122 45.1248 39.449C46.4197 35.2167 47.9516 31.6634 49.7203 28.7893C53.163 27.1784 57.6322 26.0888 63.1279 25.5203L63.4122 26.3257ZM49.7677 59.442C48.6622 58.5892 47.5568 57.2311 46.4513 55.3676L50.8574 52.4302L51.5206 53.5199C52.405 54.9728 53.1472 56.0783 53.7473 56.8363L49.7677 59.442Z" fill="#007A3D"/>
<path d="M81.5697 24.5569L79.5325 30.1L78.5376 30.9528L78.0638 31.0002C77.8111 31.0318 77.4163 31.0476 76.8794 31.0476C75.1107 31.0476 73.4051 30.7475 71.7627 30.1474C69.2044 31.4424 65.6985 32.3267 61.2451 32.8005L60.3449 32.8952L63.0928 25.694L65.2721 25.4571L65.6985 25.4097C65.5406 24.936 65.4616 24.5254 65.4616 24.1779C65.4616 23.3883 65.7143 22.4092 66.2196 21.2406C66.7566 20.0404 67.2777 19.1876 67.7831 18.6822C68.32 18.1769 69.0938 17.7821 70.1045 17.4978C71.1152 17.182 72.1733 17.024 73.2788 17.024C75.0791 17.024 76.8952 17.4188 78.7271 18.2085C78.4744 20.451 78.0322 22.3776 77.4005 23.9884C78.0638 24.02 79.3588 23.941 81.2854 23.7515L81.5697 24.5569Z" fill="#007A3D"/>
<path d="M90.7982 1.57922C91.1456 2.52676 91.4614 4.6745 91.7457 8.02246C92.03 11.3388 92.1721 14.5131 92.1721 17.5452C92.1721 18.2085 92.0615 19.1876 91.8404 20.4825C91.6194 21.7459 91.2877 23.0093 90.8455 24.2727C90.4349 25.5361 89.9296 26.4836 89.3295 27.1153C88.224 28.0944 86.7396 28.9314 84.8761 29.6262C83.0126 30.2895 80.8964 30.7475 78.5276 31.0002L81.2754 23.7989C82.4757 23.6726 83.7232 23.4673 85.0182 23.183C86.3447 22.8672 87.4976 22.5197 88.4767 22.1407C88.2872 20.2772 87.8766 18.0032 87.2449 15.3185C86.6132 12.6338 85.9657 10.2965 85.3025 8.30672C86.0605 6.98017 86.9449 5.701 87.9556 4.4692C88.9663 3.23741 89.9138 2.27408 90.7982 1.57922Z" fill="#007A3D"/>
<path d="M102.292 27.7628C102.323 24.7307 102.244 21.0669 102.055 16.7714C101.865 12.4443 101.613 8.60677 101.297 5.25882C102.181 4.18495 103.176 3.15845 104.282 2.17933C105.387 1.20021 106.382 0.473767 107.266 0C107.456 0.694859 107.551 2.06878 107.551 4.12178C107.551 6.9328 107.408 10.2808 107.124 14.1656C106.84 18.0189 106.603 20.293 106.413 20.9879L103.334 28.1418L102.292 27.7628Z" fill="#007A3D"/>
</svg>
