<svg width="31" height="30" viewBox="0 0 31 30" fill="none" xmlns="http://www.w3.org/2000/svg">
<path d="M15.5 22.75C18.2614 22.75 20.5 20.5114 20.5 17.75C20.5 14.9886 18.2614 12.75 15.5 12.75C12.7386 12.75 10.5 14.9886 10.5 17.75C10.5 20.5114 12.7386 22.75 15.5 22.75Z" stroke="white" stroke-width="2" stroke-miterlimit="10" stroke-linecap="round" stroke-linejoin="round"/>
<path d="M15.8125 16.1875V17.35C15.8125 17.7875 15.5875 18.2 15.2 18.425L14.25 19" stroke="white" stroke-width="2" stroke-miterlimit="10" stroke-linecap="round" stroke-linejoin="round"/>
<path d="M10.5 27.5H20.5C25.525 27.5 26.425 25.4875 26.6875 23.0375L27.625 13.0375C27.9625 9.9875 27.0875 7.5 21.75 7.5H9.25003C3.91253 7.5 3.03753 9.9875 3.37503 13.0375L4.31253 23.0375C4.57503 25.4875 5.47503 27.5 10.5 27.5Z" stroke="white" stroke-width="2" stroke-miterlimit="10" stroke-linecap="round" stroke-linejoin="round"/>
<path d="M10.5 7.5V6.5C10.5 4.2875 10.5 2.5 14.5 2.5H16.5C20.5 2.5 20.5 4.2875 20.5 6.5V7.5" stroke="white" stroke-width="2" stroke-miterlimit="10" stroke-linecap="round" stroke-linejoin="round"/>
<path d="M27.5625 13.75C25.4 15.325 23 16.425 20.5125 17.05" stroke="white" stroke-width="2" stroke-miterlimit="10" stroke-linecap="round" stroke-linejoin="round"/>
<path d="M3.7749 14.0879C5.8624 15.5129 8.1374 16.5254 10.4999 17.1004" stroke="white" stroke-width="2" stroke-miterlimit="10" stroke-linecap="round" stroke-linejoin="round"/>
</svg>
