<svg width="80" height="56" viewBox="0 0 80 56" fill="none" xmlns="http://www.w3.org/2000/svg">
<path d="M50.3984 39.4004L49.1328 42.844L48.5147 43.3738L47.3374 43.4916C47.0823 44.296 46.7782 44.9239 46.425 45.3752C45.699 46.1601 44.7081 46.8371 43.4523 47.4061C42.2161 47.9555 40.9604 48.2302 39.6849 48.2302C38.3703 48.2302 37.1832 47.9163 36.1236 47.2884C35.0836 46.6605 34.4557 45.8854 34.2399 44.9632C34.4165 43.9036 34.9855 42.5693 35.947 40.9604C36.9085 39.3317 37.9386 38.0367 39.0374 37.0753L39.4789 39.6065C38.9491 39.9989 38.4095 40.46 37.8601 40.9898C37.3107 41.5196 36.879 41.9905 36.5651 42.4025C36.879 42.8146 37.399 43.1482 38.125 43.4033C38.851 43.6387 39.7242 43.7564 40.7445 43.7564C41.8041 43.7564 42.7656 43.6387 43.6289 43.4033C44.5119 43.1482 45.2575 42.8244 45.8658 42.432C45.7481 41.2547 45.4832 39.8027 45.0711 38.076C44.6787 36.3492 44.2764 34.8874 43.8644 33.6905C44.3353 32.8664 44.8847 32.0717 45.5126 31.3065C46.1405 30.5412 46.7291 29.9428 47.2785 29.5111C47.4748 30.0801 47.6612 31.3555 47.8378 33.3373C48.0144 35.2995 48.1125 37.2322 48.1321 39.1355L50.2218 38.9001L50.3984 39.4004Z" fill="white"/>
<path d="M66.0558 38.2918L64.7902 41.7354L64.1722 42.2652C62.0334 42.481 60.5814 42.589 59.8161 42.589C58.7173 42.589 57.7951 42.3535 57.0495 41.8826C55.4013 42.5301 53.6059 42.9716 51.6633 43.207L51.163 43.2659L51.4279 42.4418C50.6234 42.8931 49.6521 43.1874 48.514 43.3248L50.2211 38.851C51.2218 38.7333 52.0754 38.4782 52.7818 38.0858L53.2232 36.673L54.1357 36.7613L53.6942 38.7039L54.1945 38.645L55.4307 38.4978C55.4503 37.6933 55.6171 36.8496 55.931 35.9666C56.245 35.064 56.6276 34.2988 57.0789 33.6709C57.6283 32.9253 58.3249 32.3464 59.1686 31.9344C60.032 31.5027 60.8659 31.2868 61.6704 31.2868C62.5534 31.2868 63.1813 31.5517 63.5541 32.0815C63.9269 32.6113 64.1133 33.3864 64.1133 34.4067C64.1133 35.7606 63.6816 36.9968 62.8183 38.1152L63.6718 38.0269L65.8793 37.7914L66.0558 38.2918ZM56.402 37.9975C56.402 38.1348 56.451 38.2526 56.5491 38.3507C57.8638 38.1544 58.9724 37.9288 59.875 37.6737C60.7972 37.4186 61.4742 37.1734 61.9059 36.9379C62.3572 36.6828 62.5828 36.4768 62.5828 36.3198C62.5828 36.1825 62.4553 36.0647 62.2002 35.9666C61.9647 35.8685 61.5919 35.8195 61.0817 35.8195C60.3165 35.8195 59.5709 35.9372 58.8449 36.1727C58.1189 36.3885 57.5302 36.673 57.0789 37.0262C56.6276 37.3598 56.402 37.6835 56.402 37.9975Z" fill="white"/>
<path d="M72.7704 37.6639L71.5048 41.1075L70.8867 41.6373L67.6491 41.9611L68.0023 40.7543C67.3352 41.6177 66.0499 42.1475 64.1466 42.3437L65.8537 37.8699C67.2272 37.7326 68.3261 37.4481 69.1502 37.0164L69.7977 34.8678L70.7395 34.9561L70.2098 37.399L72.5938 37.1635L72.7704 37.6639ZM65.1473 45.1986L70.4746 43.7564L69.886 46.788L64.647 47.9359L65.1473 45.1986Z" fill="white"/>
<path d="M78.1752 29.0009C78.705 29.0009 79.1366 29.3737 79.4702 30.1193C79.8234 30.865 80 31.8166 80 32.9743C80 33.9358 79.8038 35.064 79.4113 36.3591C79.0385 37.6345 78.597 38.6156 78.0869 39.3023C77.6944 39.7929 76.9783 40.2442 75.9383 40.6562C74.918 41.0683 73.6131 41.3626 72.0238 41.5392L70.8759 41.6569L72.583 37.1832L74.4078 37.0066C75.5655 36.8692 76.6545 36.673 77.6748 36.4179L77.5571 35.4172H76.0855C75.3398 35.4172 74.7414 35.3093 74.2901 35.0935C73.8388 34.858 73.6131 34.5342 73.6131 34.1222C73.6131 33.6513 73.8976 33.0037 74.4667 32.1796C75.0357 31.3555 75.6832 30.6197 76.4092 29.9722C77.1352 29.3247 77.7239 29.0009 78.1752 29.0009ZM77.4982 27.1172C76.8115 26.5874 76.1247 25.7437 75.438 24.586L78.1752 22.7612L78.5872 23.4382C79.1366 24.3407 79.5978 25.0275 79.9706 25.4984L77.4982 27.1172Z" fill="white"/>
<path d="M19.4844 33.6611L18.2188 37.1047L17.6007 37.6345C16.1291 37.7718 14.314 38.0269 12.1557 38.3997C13.0386 38.4782 13.9216 38.6156 14.8046 38.8118C15.7072 38.9884 16.4528 39.1748 17.0415 39.371C16.7471 41.4117 16.4234 42.9912 16.0702 44.1096C15.7366 45.2085 15.3049 46.062 14.7752 46.6703C13.8922 47.6906 12.607 48.5441 10.9195 49.2309C9.23202 49.9177 7.50531 50.261 5.73936 50.261C4.22848 50.261 2.92364 49.849 1.82482 49.0249C0.726004 48.1811 0.11773 47.0235 0 45.5518C0.667139 43.7074 1.50106 42.0003 2.50177 40.4306C3.50248 38.8412 4.7877 37.3205 6.35744 35.8685L6.97552 38.6352C5.91595 39.4593 5.05259 40.2245 4.38546 40.9309C3.71832 41.6373 3.11985 42.4025 2.59007 43.2267C3.10023 44.0115 3.74775 44.61 4.53262 45.022C5.33711 45.4145 6.34763 45.6107 7.56418 45.6107C9.09467 45.6107 10.5172 45.3654 11.8319 44.8749C13.1662 44.3647 14.2552 43.7074 15.0989 42.9029C14.2944 42.6478 13.1956 42.4124 11.8025 42.1965C10.4093 41.9807 9.18297 41.8531 8.12339 41.8139C8.92789 39.1846 9.87954 36.9771 10.9784 35.1916C12.0379 34.701 13.2937 34.289 14.7457 33.9554C16.1977 33.6022 17.7184 33.3373 19.3078 33.1607L19.4844 33.6611ZM4.88581 53.1749L10.2131 51.7327L9.62446 54.7642L4.38546 55.9121L4.88581 53.1749Z" fill="white"/>
<path d="M28.5216 27.1859L27.256 30.6295L26.6379 31.1593L25.7843 31.2476L25.5194 31.277C25.696 31.5321 25.7843 31.7774 25.7843 32.0128C25.7843 32.7585 25.5096 33.5826 24.9602 34.4852C24.4304 35.3878 23.8123 36.1138 23.106 36.6632C22.4388 36.8594 21.7226 37.0262 20.9574 37.1635C20.1921 37.3009 19.0737 37.4481 17.6021 37.605L19.3092 33.1313L20.1627 33.043H20.2216V32.9841C20.2216 32.7094 20.3393 32.2287 20.5748 31.5419C20.8298 30.8355 21.1242 30.1488 21.4577 29.4816C21.7913 28.7949 22.0954 28.324 22.3701 28.0689C22.8803 27.5195 24.4991 27.0976 27.2265 26.8033L28.345 26.6855L28.5216 27.1859Z" fill="white"/>
<path d="M39.2539 16.3547L37.9883 19.7983L37.3702 20.3281C35.4865 20.5243 33.6421 20.7794 31.8369 21.0934C32.7395 21.1718 33.6519 21.3092 34.5741 21.5054C35.4963 21.682 36.2419 21.8684 36.811 22.0646C36.811 23.0261 36.6148 24.174 36.2223 25.5082C35.8495 26.8425 35.4374 27.8334 34.9861 28.4809C34.2994 29.05 33.2202 29.5896 31.7486 30.0997C30.2966 30.5903 28.5895 30.9336 26.6273 31.1299L28.3344 26.6561C29.7864 26.5188 30.9637 26.3618 31.8663 26.1852C32.7885 25.989 33.6911 25.7633 34.5741 25.5082C33.7892 25.2728 32.7198 25.0569 31.3659 24.8607C30.0317 24.6645 28.874 24.5468 27.8929 24.5075C28.6974 21.8782 29.649 19.6708 30.7479 17.8852C32.8866 16.8845 35.6631 16.2075 39.0773 15.8544L39.2539 16.3547ZM30.7773 36.9281C30.0905 36.3983 29.4038 35.5546 28.717 34.3969L31.4542 32.5721L31.8663 33.249C32.4157 34.1516 32.8768 34.8384 33.2496 35.3093L30.7773 36.9281Z" fill="white"/>
<path d="M50.5341 15.2559L49.2685 18.6995L48.6505 19.2293L48.3561 19.2587C48.1992 19.2783 47.9539 19.2882 47.6203 19.2882C46.5215 19.2882 45.4619 19.1017 44.4416 18.7289C42.8522 19.5334 40.6742 20.0828 37.9076 20.3772L37.3483 20.436L39.0554 15.9623L40.4093 15.8151L40.6742 15.7857C40.5761 15.4914 40.5271 15.2363 40.5271 15.0204C40.5271 14.5299 40.684 13.9216 40.998 13.1956C41.3316 12.45 41.6553 11.9202 41.9693 11.6062C42.3028 11.2923 42.7836 11.047 43.4115 10.8704C44.0394 10.6742 44.6967 10.5761 45.3834 10.5761C46.5019 10.5761 47.6301 10.8214 48.7682 11.3119C48.6112 12.7051 48.3365 13.902 47.9441 14.9027C48.3561 14.9223 49.1606 14.8733 50.3576 14.7555L50.5341 15.2559Z" fill="white"/>
<path d="M56.2673 0.981086C56.4831 1.56974 56.6793 2.90401 56.8559 4.98392C57.0325 7.0442 57.1208 9.01618 57.1208 10.8999C57.1208 11.3119 57.0522 11.9202 56.9148 12.7247C56.7775 13.5096 56.5714 14.2944 56.2967 15.0793C56.0416 15.8642 55.7277 16.4528 55.3549 16.8453C54.6681 17.4535 53.7459 17.9735 52.5882 18.4052C51.4305 18.8172 50.1159 19.1018 48.6442 19.2587L50.3513 14.785C51.097 14.7065 51.872 14.5789 52.6765 14.4023C53.5006 14.2061 54.2168 13.9903 54.8251 13.7548C54.7074 12.5971 54.4523 11.1844 54.0598 9.51654C53.6674 7.84869 53.2652 6.39668 52.8531 5.16051C53.324 4.3364 53.8734 3.54172 54.5013 2.77647C55.1292 2.01123 55.7179 1.41276 56.2673 0.981086Z" fill="white"/>
<path d="M63.4076 17.2475C63.4272 15.3638 63.3782 13.0877 63.2604 10.4191C63.1427 7.73096 62.9857 5.34692 62.7895 3.26702C63.3389 2.59988 63.957 1.96217 64.6438 1.3539C65.3305 0.745625 65.9486 0.294326 66.498 0C66.6158 0.431678 66.6746 1.28522 66.6746 2.56064C66.6746 4.30697 66.5863 6.38687 66.4097 8.80034C66.2331 11.1942 66.086 12.607 65.9682 13.0386L64.0551 17.483L63.4076 17.2475Z" fill="white"/>
</svg>
